P2
5 5
255
146 146 146 146 146 
146 0 0 0 146 
146 0 0 0 146 
146 0 0 0 146 
146 146 146 146 146 
